# AST/ASF file generated using VICON BodyLanguage
# -----------------------------------------------
:version 1.10
:name VICON
:units
  mass 1.0
  length 0.45
  angle deg
:documentation
   .ast/.asf automatically generated from VICON data using
   VICON BodyBuilder and BodyLanguage model FoxedUp or BRILLIANT.MOD
:root
   order TX TY TZ RX RY RZ
   axis XYZ
   position 0 0 0  
   orientation 0 0 0 
:bonedata
  begin
     id 1 
     name lhipjoint
     direction 0.601702 -0.665326 0.441924 
     length 2.60689 
     axis 0 0 0  XYZ
  end
  begin
     id 2 
     name lfemur
     direction 0.34202 -0.939693 0  
     length 6.99849  
     axis 0 0 20  XYZ
    dof rx ry rz
    limits (-160.0 20.0)
           (-70.0 70.0)
           (-60.0 70.0)
  end
  begin
     id 3 
     name ltibia
     direction 0.34202 -0.939693 0   
     length 7.33734   
     axis 0 0 20   XYZ
    dof rx
    limits (-10.0 170.0)
  end
  begin
     id 4 
     name lfoot
     direction 0.0879468 -0.241632 0.966374   
     length 1.95247   
     axis -90 7.62852e-016 20   XYZ
    dof rx rz
    limits (-45.0 90.0)
           (-70.0 20.0)
  end
  begin
     id 5 
     name ltoes
     direction 1.53555e-011 -4.22053e-011 1   
     length 0.981458   
     axis -90 7.62852e-016 20   XYZ
    dof rx
    limits (-90.0 20.0)
  end
  begin
     id 6 
     name rhipjoint
     direction -0.524152 -0.709394 0.471195   
     length 2.44495  
     axis 0 0 0  XYZ 
  end
  begin
     id 7 
     name rfemur
     direction -0.34202 -0.939693 0   
     length 6.63298   
     axis 0 0 -20   XYZ
    dof rx ry rz
    limits (-160.0 20.0)
           (-70.0 70.0)
           (-70.0 60.0)
  end
  begin
     id 8 
     name rtibia
     direction -0.34202 -0.939693 0   
     length 7.43066   
     axis 0 0 -20   XYZ
    dof rx
    limits (-10.0 170.0)
 end
 begin
     id 9 
     name rfoot
     direction -0.113818 -0.312714 0.943003   
     length 2.04792  
     axis -90 -7.62852e-016 -20   XYZ
    dof rx rz
    limits (-45.0 90.0)
           (-20.0 70.0)
  end
  begin
     id 10 
     name rtoes
     direction -1.53508e-011 -4.21689e-011 1   
     length 1.02013   
     axis -90 -7.62852e-016 -20   XYZ
    dof rx
    limits (-90.0 20.0)
  end
  begin
     id 11 
     name lowerback
     direction -0.0334041 0.990787 -0.131244   
     length 2.12417   
     axis 0 0 0   XYZ
    dof rx ry rz
    limits (-20.0 45.0)
           (-30.0 30.0)
           (-30.0 30.0)
  end
  begin
     id 12 
     name upperback
     direction -0.00386223 0.999243 -0.0387184   
     length 2.13824   
     axis 0 0 0   XYZ
    dof rx ry rz
    limits (-20.0 45.0)
           (-30.0 30.0)
           (-30.0 30.0)
  end
  begin
     id 13 
     name thorax
     direction 0.00911962 0.999708 0.0223632   
     length 2.17223   
     axis 0 0 0   XYZ
    dof rx ry rz
    limits (-20.0 45.0)
           (-30.0 30.0)
           (-30.0 30.0)
  end
  begin
     id 14 
     name lowerneck
     direction 0.0180441 0.990527 0.136127   
     length 1.79499   
     axis 0 0 0   XYZ
    dof rx ry rz
    limits (-20.0 45.0)
           (-30.0 30.0)
           (-30.0 30.0)
  end
  begin
     id 15 
     name upperneck
     direction 0.00566481 0.961662 -0.274179   
     length 1.81138   
     axis 0 0 0   XYZ
    dof rx ry rz
    limits (-20.0 45.0)
           (-30.0 30.0)
           (-30.0 30.0)
  end
  begin
     id 16
     name head
     direction 0.000922185 0.994286 -0.106749  
     length 1.84109  
     axis 0 0 0   XYZ
    dof rx ry rz
    limits (-20.0 45.0)
           (-30.0 30.0)
           (-30.0 30.0)
  end
  begin
     id 17 
     name lclavicle
     direction 0.916316 0.39017 -0.0901807  
     length 3.48327  
     axis 0 0 0   XYZ
    dof ry rz
    limits (-20.0 10.0)
           (0.0 20.0)
  end
  begin
     id 18 
     name lhumerus
     direction 1 -4.4897e-011 -7.31988e-029   
     length 4.85247   
     axis 180 -30 -90   XYZ
    dof rx ry rz
    limits (-60.0 90.0)
           (-90.0 90.0)
           (-90.0 90.0)
  end
  begin
     id 19
     name lradius
     direction 1 -4.4895e-011 9.36002e-027   
     length 3.55584   
     axis 180 -30 -90   XYZ
    dof rx
    limits (-10.0 170.0)
  end
  begin
     id 20
     name lwrist
     direction 1 -4.48975e-011 1.73237e-026   
     length 1.77792   
     axis -9.60847e-015 90 90   XYZ
    dof ry
    limits (-180.0 0.0)
 end
  begin
     id 21 
     name lhand
     direction 1 -4.48951e-011 3.46425e-026   
     length 0.693203   
     axis -2.21073e-014 90 90   XYZ
    dof rx rz
    limits (-90.0 90.0)
           (-45.0 45.0)
  end
  begin
     id 22 
     name lfingers
     direction 1 -4.48937e-011 6.92793e-026   
     length 0.558878   
     axis -4.42155e-014 90 90   XYZ
    dof rx
    limits (0.0 90.0)
  end
  begin
     id 23
     name lthumb
     direction 0.707107 -6.34959e-011 0.707107   
     length 0.802441   
     axis -90 45 6.0103e-014   XYZ
    dof rx rz
    limits (-45.0 45.0)
           (-45.0 45.0)
  end
  begin
     id 24 
     name rclavicle
     direction -0.932839 0.352129 -0.0762679   
     length 3.52686  
     axis 0 0 0   XYZ 
    dof ry rz
    limits (-10.0 20.0)
           (-20.0 0.0)
  end
  begin
     id 25 
     name rhumerus
     direction -1 -4.48974e-011 2.90424e-028  
     length 4.64462   
     axis 180 30 90   XYZ
    dof rx ry rz
    limits (-90.0 60.0)
           (-90.0 90.0)
           (-90.0 90.0)
  end
  begin
     id 26 
     name rradius
     direction -1 -4.48956e-011 7.17421e-027   
     length 3.40703   
     axis 180 30 90   XYZ
    dof rx
    limits (-10.0 170.0)
  end
  begin
     id 27 
     name rwrist
     direction -1 -4.48971e-011 1.73232e-026   
     length 1.70352   
     axis -9.60847e-015 -90 -90   XYZ
    dof ry
    limits (-180.0 0.0)
  end
  begin
     id 28
     name rhand
     direction -1 -4.49004e-011 3.46531e-026   
     length 0.619577   
     axis -2.21073e-014 -90 -90   XYZ
    dof rx rz
    limits (-90.0 90.0)
           (-45.0 45.0)
  end
  begin
     id 29
     name rfingers
     direction -1 -4.48859e-011 6.92483e-026   
     length 0.499519   
     axis -4.42155e-014 -90 -90   XYZ
    dof rx
    limits (0.0 90.0)
  end
  begin
     id 30
     name rthumb
     direction -0.707107 -6.34911e-011 0.707107   
     length 0.717212   
     axis -90 -45 -6.0103e-014   XYZ
    dof rx rz
    limits (-45.0 45.0)
           (-45.0 45.0)
  end
:hierarchy
  begin
    root lhipjoint rhipjoint lowerback
    lhipjoint lfemur
    lfemur ltibia
    ltibia lfoot
    lfoot ltoes
    rhipjoint rfemur
    rfemur rtibia
    rtibia rfoot
    rfoot rtoes
    lowerback upperback
    upperback thorax
    thorax lowerneck lclavicle rclavicle
    lowerneck upperneck
    upperneck head
    lclavicle lhumerus
    lhumerus lradius
    lradius lwrist
    lwrist lhand lthumb
    lhand lfingers
    rclavicle rhumerus
    rhumerus rradius
    rradius rwrist
    rwrist rhand rthumb
    rhand rfingers
  end

#!OML:ASF Y:\EmotionMaleHayes\Project 1\Capture day 1\Session 1\Male1.ASF
:FULLY-SPECIFIED
:DEGREES
49
root -28.5018 17.0639 1.10227 39.2271 84.1307 39.6564
lowerback 4.41659 2.25137 -6.85316
upperback -0.438457 2.61161 -1.92244
thorax -3.15038 1.41438 1.65649
lowerneck -20.3843 2.89257 6.00722
upperneck 27.1305 3.12849 -2.24134
head 12.5349 1.84888 -1.32024
rclavicle -5.42309e-015 -2.38542e-015
rhumerus -36.2581 2.66766 -91.0386
rradius 30.14
rwrist 3.82576
rhand -7.97132 -32.8566
rfingers 7.12502
rthumb 17.9364 -62.0495
lclavicle -5.42309e-015 -2.38542e-015
lhumerus -33.7956 -7.11221 89.691
lradius 23.2013
lwrist -14.6876
lhand -14.3705 -24.9877
lfingers 7.12502
lthumb 11.7718 4.6615
rfemur 8.43433 -3.31138 8.22007
rtibia 2.82073
rfoot -15.3656 -2.27345
rtoes 2.88702
lfemur 12.5851 1.90688 -21.7672
ltibia -2.88859
lfoot -13.2532 14.7416
ltoes -3.67103
50
root -28.5011 17.0634 1.10401 39.9545 84.0449 40.3885
lowerback 4.381 2.25776 -6.98481
upperback -0.424678 2.61745 -1.94542
thorax -3.12156 1.41869 1.70695
lowerneck -20.3349 2.90684 6.0165
upperneck 27.0687 3.15254 -2.26052
head 12.5018 1.85704 -1.32546
rclavicle 3.96451e-014 -1.90833e-014
rhumerus -36.2356 2.6697 -91.0002
rradius 30.1095
rwrist 3.79783
rhand -8.02892 -32.7984
rfingers 7.12502
rthumb 17.881 -61.9963
lclavicle 3.96451e-014 -1.90833e-014
lhumerus -33.823 -7.1192 89.7052
lradius 23.2569
lwrist -14.622
lhand -15.1149 -24.797
lfingers 7.12502
lthumb 11.0539 4.89194
rfemur 8.48873 -3.0904 8.15688
rtibia 2.71152
rfoot -15.3716 -2.44596
rtoes 3.14034
lfemur 12.5793 1.86982 -21.909
ltibia -2.88453
lfoot -13.3291 14.8361
ltoes -3.67671
51
root -28.4998 17.0629 1.10529 39.6943 84.0222 40.1358
lowerback 4.3069 2.26766 -6.97679
upperback -0.371137 2.64096 -1.95062
thorax -3.02541 1.42664 1.69989
lowerneck -20.3417 2.90606 6.02752
upperneck 26.9979 3.14445 -2.26869
head 12.4748 1.8513 -1.33177
rclavicle 2.00027e-015 2.62396e-014
rhumerus -36.1442 2.67575 -90.9766
rradius 30.1005
rwrist 3.80969
rhand -7.94635 -32.7741
rfingers 7.12502
rthumb 17.9605 -61.9648
lclavicle 2.00027e-015 2.62396e-014
lhumerus -33.7853 -7.15716 89.6993
lradius 23.3127
lwrist -14.4864
lhand -13.8778 -24.95
lfingers 7.12502
lthumb 12.247 4.67145
rfemur 8.51853 -3.07426 8.17294
rtibia 2.67942
rfoot -15.3369 -2.40689
rtoes 3.21606
lfemur 12.6239 1.81488 -21.9283
ltibia -2.95494
lfoot -13.3474 14.8929
ltoes -2.86715
52
root -28.5022 17.0619 1.10833 39.0131 84.0599 39.4691
lowerback 4.3302 2.28905 -6.88737
upperback -0.342226 2.67334 -1.95122
thorax -3.00681 1.44012 1.64714
lowerneck -20.4548 2.88856 6.07283
upperneck 27.0423 3.10913 -2.31383
head 12.5155 1.83348 -1.36181
rclavicle 2.61278e-014 5.96354e-015
rhumerus -36.0387 2.55233 -90.9464
rradius 30.0709
rwrist 3.89873
rhand -7.81027 -32.8568
rfingers 7.12502
rthumb 18.0914 -62.0354
lclavicle 2.61278e-014 5.96354e-015
lhumerus -33.7455 -7.24026 89.6997
lradius 23.3474
lwrist -14.3431
lhand -14.6496 -25.1432
lfingers 7.12502
lthumb 11.5026 4.52115
rfemur 8.49496 -3.2128 8.21694
rtibia 2.73749
rfoot -15.349 -2.19656
rtoes 3.53039
lfemur 12.6397 1.7782 -21.8341
ltibia -2.9814
lfoot -13.2909 14.9517
ltoes -2.87532
53
root -28.5057 17.0613 1.11234 38.7486 84.0956 39.1962
lowerback 4.39671 2.29471 -6.84304
upperback -0.35542 2.6762 -1.96188
thorax -3.05558 1.44228 1.6082
lowerneck -20.4368 2.89254 5.99912
upperneck 27.0194 3.10951 -2.21165
head 12.4995 1.83955 -1.31033
rclavicle 1.26725e-014 1.11319e-014
rhumerus -35.9829 2.45299 -90.9484
rradius 30.0692
rwrist 3.78879
rhand -7.63194 -33.0176
rfingers 7.12502
rthumb 18.263 -62.1803
lclavicle 1.26725e-014 1.11319e-014
lhumerus -33.7126 -7.13013 89.6095
lradius 23.3488
lwrist -14.4275
lhand -13.8641 -25.0629
lfingers 7.12502
lthumb 12.2602 4.55771
rfemur 8.447 -3.25814 8.25916
rtibia 2.77338
rfoot -15.3911 -2.12053
rtoes 4.25183
lfemur 12.5784 1.83942 -21.725
ltibia -2.88273
lfoot -13.3229 14.926
ltoes -3.26283
54
root -28.5065 17.0623 1.1149 38.7057 84.1258 39.1322
lowerback 4.36929 2.2541 -6.83658
upperback -0.324096 2.62688 -1.93837
thorax -3.00442 1.41574 1.63489
lowerneck -20.6028 2.94186 5.96161
upperneck 27.1029 3.17463 -2.18547
head 12.5687 1.86709 -1.28164
rclavicle 1.56667e-014 -1.86858e-014
rhumerus -35.885 2.54925 -90.9422
rradius 29.9851
rwrist 3.75508
rhand -7.68735 -32.8634
rfingers 7.12502
rthumb 18.2096 -62.0311
lclavicle 1.56667e-014 -1.86858e-014
lhumerus -33.6187 -6.8543 89.5412
lradius 23.2659
lwrist -14.7196
lhand -15.1583 -25.3051
lfingers 7.12502
lthumb 11.0121 4.38609
rfemur 8.42472 -3.26 8.31016
rtibia 2.72673
rfoot -15.3935 -2.15126
rtoes 4.81446
lfemur 12.5358 1.79298 -21.7026
ltibia -2.82584
lfoot -13.3453 14.9805
ltoes -3.56978
55
root -28.5063 17.0639 1.11889 38.1329 84.1504 38.5689
lowerback 4.33905 2.28365 -6.72323
upperback -0.294355 2.67595 -1.99084
thorax -2.95243 1.43639 1.51628
lowerneck -20.5908 2.90567 6.06284
upperneck 27.1164 3.11446 -2.26684
head 12.5723 1.84074 -1.34021
rclavicle -2.73329e-016 1.59028e-014
rhumerus -35.8673 2.49315 -91.0165
rradius 30.0176
rwrist 3.76163
rhand -7.78241 -32.9366
rfingers 7.12502
rthumb 18.1182 -62.1128
lclavicle -2.73329e-016 1.59028e-014
lhumerus -33.5656 -6.97175 89.4548
lradius 23.2178
lwrist -14.4764
lhand -14.4151 -25.183
lfingers 7.12502
lthumb 11.7289 4.46865
rfemur 8.44097 -3.20981 8.42415
rtibia 2.69626
rfoot -15.4042 -2.1629
rtoes 5.08827
lfemur 12.5676 1.70668 -21.6486
ltibia -2.84733
lfoot -13.3187 15.0776
ltoes -3.85616
56
root -28.5001 17.0612 1.11982 39.76 84.013 40.2519
lowerback 4.28767 2.30051 -6.8972
upperback -0.248996 2.69712 -2.084
thorax -2.88173 1.44738 1.51814
lowerneck -20.6205 2.9253 6.13875
upperneck 27.048 3.11528 -2.28861
head 12.5531 1.84363 -1.36092
rclavicle 7.09413e-015 -2.78299e-015
rhumerus -35.8702 2.44729 -91.0141
rradius 30.0294
rwrist 3.89416
rhand -7.76581 -32.9401
rfingers 7.12502
rthumb 18.1342 -62.1148
lclavicle 7.09413e-015 -2.78299e-015
lhumerus -33.6751 -7.56929 89.6779
lradius 23.319
lwrist -14.1364
lhand -14.5213 -24.6536
lfingers 7.12502
lthumb 11.6264 5.00385
rfemur 8.53987 -3.52757 8.04258
rtibia 2.7793
rfoot -15.3788 -1.85678
rtoes 4.71227
lfemur 12.7579 1.26206 -22.1155
ltibia -3.06928
lfoot -13.499 15.4764
ltoes -3.21903
57
root -28.4874 17.0552 1.11486 44.5295 83.6208 45.0888
lowerback 4.17887 2.31543 -7.46032
upperback -0.18719 2.70509 -2.2749
thorax -2.7743 1.45696 1.6378
lowerneck -20.6212 2.87663 6.11453
upperneck 27.086 3.08734 -2.38792
head 12.5678 1.81644 -1.39977
rclavicle -1.6114e-014 2.5842e-014
rhumerus -35.8939 2.35945 -90.9365
rradius 30.0506
rwrist 3.95435
rhand -7.94233 -32.7754
rfingers 7.12502
rthumb 17.9643 -61.9657
lclavicle -1.6114e-014 2.5842e-014
lhumerus -33.6906 -7.7744 89.8132
lradius 23.2574
lwrist -14.3043
lhand -14.2951 -24.9412
lfingers 7.12502
lthumb 11.8446 4.70383
rfemur 8.69397 -4.27408 6.95796
rtibia 2.86529
rfoot -15.2274 -1.2092
rtoes 4.2167
lfemur 12.9532 0.87419 -23.1702
ltibia -3.29176
lfoot -13.6371 15.8123
ltoes -2.52748
58
root -28.4808 17.0525 1.11233 47.5018 83.3336 48.0733
lowerback 4.06954 2.30765 -7.83589
upperback -0.133243 2.69316 -2.40991
thorax -2.6667 1.45323 1.71257
lowerneck -20.6739 2.9053 6.06922
upperneck 27.0094 3.11881 -2.33803
head 12.5476 1.82925 -1.36719
rclavicle -1.97915e-014 3.77691e-014
rhumerus -35.8398 2.36491 -90.9049
rradius 30.0175
rwrist 3.89471
rhand -8.28665 -32.4139
rfingers 7.12502
rthumb 17.633 -61.6344
lclavicle -1.97915e-014 3.77691e-014
lhumerus -33.519 -7.30229 89.6612
lradius 23.0703
lwrist -14.671
lhand -14.3094 -24.9
lfingers 7.12502
lthumb 11.8308 4.74586
rfemur 8.74431 -4.68912 6.24913
rtibia 2.85504
rfoot -15.0947 -0.848196
rtoes 4.11833
lfemur 12.8913 1.33474 -23.6089
ltibia -3.15695
lfoot -13.4034 15.3699
ltoes -3.07497
59
root -28.4891 17.0572 1.11834 44.5199 83.7131 45.0162
lowerback 4.11167 2.28471 -7.3311
upperback -0.152569 2.67893 -2.28692
thorax -2.69153 1.43902 1.55996
lowerneck -20.7301 2.9413 6.07347
upperneck 27.0415 3.16903 -2.34786
head 12.5748 1.85036 -1.36272
rclavicle 1.27968e-014 -1.59028e-015
rhumerus -35.7137 2.27932 -90.8754
rradius 29.8432
rwrist 4.11685
rhand -8.37723 -32.3853
rfingers 7.12502
rthumb 17.5458 -61.6135
lclavicle 1.27968e-014 -1.59028e-015
lhumerus -33.3893 -6.91442 89.5064
lradius 22.967
lwrist -14.8965
lhand -14.128 -24.7926
lfingers 7.12502
lthumb 12.0057 4.84303
rfemur 8.64256 -4.15829 7.10614
rtibia 2.71363
rfoot -15.1468 -1.38121
rtoes 4.6148
lfemur 12.7334 1.55237 -22.8052
ltibia -3.01498
lfoot -13.258 15.1154
ltoes -3.54071
60
root -28.4968 17.0637 1.12585 40.862 84.0973 41.333
lowerback 4.25751 2.28959 -6.84279
upperback -0.205451 2.69056 -2.12759
thorax -2.81422 1.44087 1.44615
lowerneck -20.7056 2.95058 6.09477
upperneck 27.0421 3.18705 -2.37803
head 12.572 1.857 -1.37497
rclavicle -2.88114e-014 3.10104e-014
rhumerus -35.6831 1.97438 -90.6757
rradius 29.7125
rwrist 4.19622
rhand -8.09099 -32.0247
rfingers 7.12502
rthumb 17.8213 -61.2281
lclavicle -2.88114e-014 3.10104e-014
lhumerus -33.4496 -6.88175 89.5095
lradius 22.9484
lwrist -15.1004
lhand -14.2557 -24.9253
lfingers 7.12502
lthumb 11.8825 4.71757
rfemur 8.61003 -3.6139 8.01928
rtibia 2.62282
rfoot -15.2816 -1.92014
rtoes 4.43135
lfemur 12.7014 1.41866 -22.0738
ltibia -3.02103
lfoot -13.2758 15.2261
ltoes -3.55303
61
root -28.4952 17.066 1.12953 41.1461 84.0328 41.6615
lowerback 4.29633 2.31507 -6.96133
upperback -0.216877 2.71465 -2.12034
thorax -2.85585 1.45601 1.51528
lowerneck -20.6222 2.94892 6.164
upperneck 27.0248 3.20908 -2.5114
head 12.5528 1.857 -1.43466
rclavicle -1.51325e-014 1.55052e-014
rhumerus -35.8722 2.22302 -90.7839
rradius 29.9746
rwrist 4.17103
rhand -8.12616 -32.5658
rfingers 7.12502
rthumb 17.7874 -61.7723
lclavicle -1.51325e-014 1.55052e-014
lhumerus -33.5296 -6.83664 89.5284
lradius 22.9234
lwrist -15.3695
lhand -14.5758 -25.0942
lfingers 7.12502
lthumb 11.5739 4.5662
rfemur 8.67505 -3.5694 7.96309
rtibia 2.59261
rfoot -15.3119 -1.95488
rtoes 3.34352
lfemur 12.5911 2.12291 -21.8793
ltibia -2.68534
lfoot -13.1943 14.5635
ltoes -3.94586
62
root -28.51 17.0738 1.14053 30.9314 84.6512 31.1899
lowerback 4.22459 2.31601 -5.84281
upperback -0.302961 2.77134 -1.78597
thorax -2.87145 1.46715 1.23763
lowerneck -20.7111 2.94213 6.31285
upperneck 27.1626 3.23218 -2.78288
head 12.6353 1.84802 -1.55985
rclavicle 1.2424e-016 9.54166e-015
rhumerus -35.9071 2.24244 -90.7362
rradius 30.0858
rwrist 3.92226
rhand -7.93932 -32.2982
rfingers 7.12502
rthumb 17.9672 -61.4883
lclavicle 1.2424e-016 9.54166e-015
lhumerus -33.4905 -6.70399 89.476
lradius 22.8783
lwrist -15.664
lhand -15.7499 -25.2375
lfingers 7.12502
lthumb 10.4414 4.48318
rfemur 8.28772 -2.72365 9.82014
rtibia 2.57101
rfoot -15.4081 -2.80657
rtoes 4.00425
lfemur 12.4421 1.2257 -20.6173
ltibia -2.90964
lfoot -13.4337 15.4182
ltoes -3.17284
63
root -28.4741 17.0578 1.12049 49.5593 83.0915 50.3274
lowerback 4.15444 2.29289 -8.1675
upperback -0.032059 2.6577 -2.48326
thorax -2.61768 1.43736 1.82148
lowerneck -20.6652 2.99473 6.16162
upperneck 26.9993 3.31151 -2.64536
head 12.5589 1.88215 -1.46792
rclavicle 8.03835e-015 -4.49253e-014
rhumerus -35.9222 2.59407 -90.8293
rradius 30.3058
rwrist 3.62913
rhand -7.81755 -32.8918
rfingers 7.12502
rthumb 18.0844 -62.0711
lclavicle 8.03835e-015 -4.49253e-014
lhumerus -33.5164 -6.54608 89.4682
lradius 22.9489
lwrist -15.7459
lhand -14.4481 -25.1239
lfingers 7.12502
lthumb 11.697 4.52953
rfemur 9.06495 -4.8727 5.73914
rtibia 2.71008
rfoot -15.0076 -0.501405
rtoes 5.19151
lfemur 13.1133 1.55148 -23.9655
ltibia -3.1697
lfoot -13.3277 15.2278
ltoes -3.63354
